<svg width="119" height="119" viewBox="0 0 119 119" fill="none" xmlns="http://www.w3.org/2000/svg">
<path d="M44.1457 2.0728L54.2464 9.12909L62.6594 0.126929L70.0853 9.95917L80.8683 3.99735L84.8924 15.6431L96.99 13.3052L97.2184 25.6245L109.446 27.1394L105.857 38.9263L117.018 44.1457L109.962 54.2464L118.964 62.6594L109.132 70.0853L115.093 80.8683L103.448 84.8924L105.786 96.99L93.4663 97.2184L91.9514 109.446L80.1645 105.857L74.9451 117.018L64.8444 109.962L56.4314 118.964L49.0055 109.132L38.2225 115.093L34.1984 103.448L22.1009 105.786L21.8724 93.4663L9.64452 91.9514L13.2341 80.1645L2.07283 74.9451L9.12912 64.8444L0.126957 56.4314L9.9592 49.0055L3.99738 38.2225L15.6431 34.1984L13.3052 22.1008L25.6245 21.8724L27.1394 9.64449L38.9263 13.2341L44.1457 2.0728Z" fill="url(#paint0_radial_0_1)"/>
<path d="M36.6977 54.7428L35.2253 50.0127L34.779 50.1323C34.7969 50.8791 34.0957 51.067 33.9894 51.0955C33.5219 51.2208 31.9527 50.8896 30.0614 51.3964C26.4064 52.3758 23.5253 55.9036 24.8007 60.6637C26.2186 65.9551 30.4415 67.01 33.8628 66.0933C37.7729 65.0456 38.8887 61.8996 38.8985 61.8514L38.4135 61.5714C37.9256 62.3854 36.7998 64.3042 34.186 65.0045C31.5085 65.722 28.4843 64.5508 27.2772 60.0457C26.4572 56.9857 27.0278 55.3751 27.6402 54.3455C28.2993 53.2351 29.4179 52.4799 30.4804 52.1952C33.0942 51.4948 35.0798 52.7848 36.2089 54.8738L36.6977 54.7428ZM42.8514 52.889C40.0038 53.652 38.8819 56.4352 39.5823 59.049C40.351 61.9178 42.85 63.5941 45.5913 62.8596C48.8214 61.9941 49.5174 58.6417 48.9537 56.5379C48.1281 53.4566 45.6352 52.143 42.8514 52.889ZM45.7294 62.1848C43.1793 62.8681 41.6429 59.089 41.2215 57.5165C40.6293 55.3064 41.502 53.8882 42.8408 53.5295C44.7958 53.0057 46.5003 55.0316 47.2063 57.6666C48.0206 60.7054 46.8132 61.8944 45.7294 62.1848ZM52.233 58.9162C52.6145 60.34 51.9884 60.5533 51.1441 60.8023L51.2295 61.1211L55.9471 59.857L55.8616 59.5382C55.1122 59.7163 54.3995 59.8617 54.1205 58.8204L52.5148 52.8278C52.4863 52.7215 53.1564 51.3121 54.6227 50.9192C55.7277 50.6231 56.311 51.3551 56.6868 52.7576L57.9224 57.3689C58.2925 58.7502 57.8208 58.9449 56.8817 59.2649L56.9671 59.5837L61.7272 58.3082L61.6417 57.9895C60.7648 58.2017 60.0889 58.3144 59.6562 56.6994L58.2213 51.3443C58.4952 50.4965 59.064 49.7292 60.2328 49.416C61.7628 49.006 62.12 50.2541 62.4104 51.3379L63.6118 55.8217C63.9762 57.1817 63.6476 57.3153 62.6193 57.7275L62.7047 58.0463L67.3585 56.7993L67.2731 56.4805L66.7092 56.5861C65.7343 56.6879 65.5848 56.0447 65.4595 55.5771L64.2865 51.1996C63.8652 49.627 62.9755 47.4967 60.7654 48.0889C59.0867 48.5387 58.132 50.1611 57.8224 50.7907C57.3495 49.9608 56.4516 49.2448 55.0703 49.6149C53.9228 49.9224 53.2338 50.8358 52.2362 52.1281L51.8092 50.5343L51.649 50.5316C50.7683 51.1548 49.855 51.7412 48.9302 52.2851L49.027 52.6463C49.1856 52.5583 49.3867 52.4588 49.6842 52.3791C50.0242 52.288 50.4337 52.2011 50.7924 53.5398L52.233 58.9162ZM64.5105 43.1679C64.8122 44.2942 65.8957 44.9377 67.0857 44.6189C68.212 44.3171 68.8555 43.2336 68.548 42.0861C68.2462 40.9598 67.1301 40.2795 66.0039 40.5813C64.8351 40.8945 64.2144 42.0629 64.5105 43.1679ZM72.8054 55.3398L72.72 55.021C71.2309 55.3289 71.0279 54.9961 70.6521 53.5936L68.6307 46.0497L68.5286 46.0088C67.5318 46.7086 66.5562 47.4028 65.548 48.0601L65.6334 48.3789C65.8983 48.2623 66.1631 48.1458 66.4606 48.0661C66.8006 47.975 67.2101 47.8881 67.546 49.1418L68.8671 54.0719C69.3112 55.7294 68.9841 55.9537 67.6837 56.3705L67.7691 56.6893L72.8054 55.3398ZM74.531 52.8276C74.867 54.0813 74.6223 54.443 73.6406 54.7744L73.726 55.0931L78.2311 53.886L78.1456 53.5672C77.0235 53.7996 76.6349 53.5393 76.447 52.838L74.847 46.8667C75.4438 45.864 75.9887 45.2625 76.6262 45.0917C77.88 44.7557 78.4675 45.4183 78.8148 46.7145L80.0049 51.1559C80.4376 52.7709 79.9136 53.0252 79.1444 53.2996L79.2298 53.6184L83.6499 52.434L83.5645 52.1153C82.5004 52.3093 82.16 52.0588 81.8924 51.0601L80.5885 46.1937C79.8881 43.5799 78.2256 43.4105 77.2481 43.6724C75.9943 44.0083 75.3861 44.9685 74.6067 46.225L74.1569 44.5462L73.9968 44.5436C73.1161 45.1668 72.2027 45.7531 71.3205 46.2856L71.4173 46.6469C71.4909 46.5816 71.7132 46.4765 72.0107 46.3967C72.3507 46.3056 72.7602 46.2187 73.1189 47.5575L74.531 52.8276ZM85.2514 44.2155C84.8699 42.7917 85.5677 42.0809 86.3327 41.8759C88.1602 41.3862 89.2632 44.1427 89.4226 44.7377C89.5479 45.2052 89.863 46.8062 88.418 47.1934C86.7605 47.6375 85.7012 45.8943 85.2514 44.2155ZM94.0441 50.7649C93.8846 50.1699 93.1658 48.6771 90.8635 49.1801L88.0881 49.7872C87.4449 49.9367 86.4078 50.1463 86.2768 49.6575C86.1629 49.2325 86.7795 48.1335 87.1931 47.9771C87.3206 47.9429 88.1141 47.8442 88.3691 47.7759C89.5591 47.457 91.5258 46.0418 90.9109 43.7467C90.6262 42.6842 90.3267 42.3317 89.9833 41.8999L91.747 41.4273L91.525 40.5985L89.8887 41.037C89.5487 41.1281 89.1548 41.1881 88.663 41.1376C87.7276 41.0466 87.2145 41.0019 86.4707 41.2012C84.8557 41.6339 83.089 43.2006 83.7666 45.7294C84.0968 46.9619 85.0813 47.7458 86.4831 47.9624C85.0416 50.1479 85.1157 50.4242 85.2125 50.7854C85.3719 51.3804 85.9927 51.4874 86.6405 51.6099C85.7617 52.6653 84.9964 53.8042 85.2526 54.7605C85.5544 55.8867 87.3987 56.3947 89.5663 55.8139C91.4788 55.3015 94.6875 53.1662 94.0441 50.7649ZM86.5637 53.7031C86.3928 53.0656 86.6558 52.5169 87.1038 51.5541C88.1596 51.499 88.6271 51.3737 90.6417 50.9022C92.2256 50.5234 93.2782 50.2869 93.5345 51.2431C93.8363 52.3694 92.6418 53.6916 90.1555 54.3578C87.7329 55.0069 86.7402 54.3619 86.5637 53.7031ZM46.3058 69.8198L45.8596 69.9394C45.8797 70.1845 45.9044 70.7017 45.3094 70.8612C44.7782 71.0035 43.437 70.5885 42.162 70.9301C40.2495 71.4426 38.6346 73.1508 39.2837 75.5733C39.8474 77.6771 41.458 78.2477 43.7148 78.8501C47.3283 79.8406 47.8619 80.472 48.1864 81.6833C48.4939 82.8308 47.9684 84.2698 46.2684 84.7254C43.3996 85.4941 41.5756 83.0219 40.9043 82.1313L40.4155 82.2623L42.2601 86.5965L42.7276 86.4713C42.6365 86.1313 42.7522 85.7131 43.1985 85.5935C43.836 85.4227 45.0709 85.8662 46.6859 85.4334C49.7247 84.6192 50.6231 82.192 50.1391 80.3857C48.9718 76.0294 41.7603 77.5062 40.9062 74.3186C40.5532 73.0011 41.4605 72.0519 42.523 71.7672C44.7543 71.1693 46.6268 72.7175 47.4549 74.3632L47.9862 74.2208L46.3058 69.8198ZM55.0512 72.3961C52.2037 73.1591 51.0818 75.9423 51.7822 78.5561C52.5509 81.4249 55.0499 83.1012 57.7912 82.3667C61.0212 81.5012 61.7173 78.1488 61.1536 76.045C60.328 72.9637 57.835 71.6502 55.0512 72.3961ZM57.9293 81.692C55.3792 82.3752 53.8428 78.5961 53.4214 77.0236C52.8292 74.8136 53.7019 73.3954 55.0407 73.0367C56.9957 72.5128 58.7001 74.5387 59.4062 77.1737C60.2204 80.2125 59.013 81.4016 57.9293 81.692ZM65.6764 69.5491C62.8289 70.3121 61.707 73.0953 62.4074 75.7091C63.1761 78.5779 65.6751 80.2542 68.4164 79.5197C71.6464 78.6542 72.3425 75.3018 71.7788 73.198C70.9531 70.1167 68.4602 68.8032 65.6764 69.5491ZM68.5544 78.8449C66.0044 79.5282 64.4679 75.7491 64.0466 74.1766C63.4544 71.9666 64.3271 70.5484 65.6659 70.1896C67.6209 69.6658 69.3253 71.6917 70.0314 74.3267C70.8456 77.3655 69.6382 78.5546 68.5544 78.8449ZM74.9021 75.5042C75.238 76.758 74.9933 77.1197 74.0116 77.451L74.097 77.7698L78.6021 76.5627L78.5167 76.2439C77.3946 76.4762 77.006 76.2159 76.8181 75.5147L75.2181 69.5433C75.8149 68.5407 76.3598 67.9392 76.9973 67.7684C78.2511 67.4324 78.8386 68.0949 79.1859 69.3912L80.3759 73.8325C80.8087 75.4476 80.2846 75.7018 79.5155 75.9763L79.6009 76.295L84.0209 75.1107L83.9355 74.7919C82.8715 74.9859 82.5311 74.7355 82.2635 73.7367L80.9595 68.8704C80.2592 66.2566 78.5967 66.0871 77.6191 66.349C76.3654 66.685 75.7571 67.6451 74.9778 68.9016L74.528 67.2229L74.3678 67.2202C73.4871 67.8434 72.5738 68.4298 71.6915 68.9623L71.7883 69.3235C71.8619 69.2582 72.0843 69.1531 72.3818 69.0734C72.7218 68.9823 73.1312 68.8954 73.49 70.2341L74.9021 75.5042ZM87.3539 70.209L86.1293 61.8139C85.9235 60.3658 85.3994 59.3447 84.3581 59.6237C83.4868 59.8572 83.5093 60.8761 83.7314 61.7048C83.9876 62.6611 85.7453 66.5859 86.2714 68.0393L87.0776 70.2831L87.3539 70.209ZM88.2798 74.1745C88.7898 74.0379 89.3631 73.5426 89.1581 72.7776C88.993 72.1613 88.3407 71.7667 87.6819 71.9432C87.0656 72.1084 86.6866 72.7338 86.8631 73.3925C87.0795 74.2 87.8335 74.2941 88.2798 74.1745Z" fill="#FEFFDB"/>
<defs>
<radialGradient id="paint0_radial_0_1" cx="0" cy="0" r="1" gradientUnits="userSpaceOnUse" gradientTransform="translate(59.5454 59.5454) rotate(75) scale(59.5)">
<stop stop-color="#C87D0C"/>
<stop offset="1" stop-color="#C8390C"/>
</radialGradient>
</defs>
</svg>
